<?xml version="1.0"?><svg fill="#000000" xmlns="http://www.w3.org/2000/svg"  viewBox="0 0 50 50" width="50px" height="50px">    <path d="M 12 0 C 10.906937 0 10 0.9069372 10 2 L 10 4 L 4 4 C 2.841 4 2 4.841 2 6 L 2 13 L 48 13 L 48 6 C 48 4.841 47.159 4 46 4 L 40 4 L 40 2 C 40 0.9069372 39.093063 0 38 0 L 36 0 C 34.906937 0 34 0.9069372 34 2 L 34 4 L 16 4 L 16 2 C 16 0.9069372 15.093063 0 14 0 L 12 0 z M 12 2 L 14 2 L 14 8 L 12 8 L 12 2 z M 36 2 L 38 2 L 38 8 L 36 8 L 36 2 z M 2 15 L 2 46 C 2 47.105 2.895 48 4 48 L 46 48 C 47.105 48 48 47.105 48 46 L 48 15 L 2 15 z M 25 19 C 25 19 27 21.613359 27 22.818359 C 27 24.023359 26.104 25 25 25 C 23.896 25 23 24.023359 23 22.818359 C 23 21.613359 25 19 25 19 z M 24 26 L 26 26 C 26.552 26 27 26.448 27 27 L 27 30.980469 L 33.105469 30.980469 C 35.263469 30.980469 37.019531 32.719422 37.019531 34.857422 L 37.019531 40 L 38 40 C 38.553 40 39 40.447 39 41 C 39 41.553 38.553 42 38 42 L 37.019531 42 L 37.019531 42.019531 L 12.980469 42.019531 L 12.980469 42 L 12 42 C 11.447 42 11 41.553 11 41 C 11 40.447 11.447 40 12 40 L 12.980469 40 L 12.980469 34.857422 C 12.980469 32.719422 14.736531 30.980469 16.894531 30.980469 L 23 30.980469 L 23 27 C 23 26.448 23.448 26 24 26 z M 16.894531 33.019531 C 15.860531 33.019531 15.019531 33.843422 15.019531 34.857422 L 15.019531 39.980469 L 34.980469 39.980469 L 34.980469 34.857422 C 34.980469 33.843422 34.140469 33.019531 33.105469 33.019531 L 16.894531 33.019531 z"/></svg>