<?xml version="1.0" encoding="UTF-8"?>
<svg xmlns="http://www.w3.org/2000/svg" xmlns:xlink="http://www.w3.org/1999/xlink" viewBox="0 0 100 100" width="100px" height="100px">
<g id="surface35941069">
<path style=" stroke:none;fill-rule:nonzero;fill:rgb(98.039216%,98.039216%,98.039216%);fill-opacity:1;" d="M 50 4 C 24.617188 4 4 24.617188 4 50 C 4 69.726562 16.46875 86.539062 33.9375 93.0625 C 34.023438 93.09375 34.101562 93.15625 34.1875 93.1875 C 35.59375 93.703125 37.03125 94.1875 38.5 94.5625 C 38.515625 94.570312 38.539062 94.554688 38.5625 94.5625 C 39.28125 94.742188 40.023438 94.914062 40.75 95.0625 C 40.875 95.085938 40.992188 95.101562 41.125 95.125 C 41.953125 95.289062 42.78125 95.445312 43.625 95.5625 C 44.054688 95.625 44.5 95.640625 44.9375 95.6875 C 45.0625 95.703125 45.1875 95.734375 45.3125 95.75 C 45.835938 95.804688 46.335938 95.835938 46.875 95.875 C 47.90625 95.945312 48.953125 96 50 96 C 50.796875 96 51.59375 95.976562 52.375 95.9375 C 53.296875 95.890625 54.1875 95.78125 55.0625 95.6875 C 55.5 95.640625 55.945312 95.625 56.375 95.5625 C 57.21875 95.445312 58.046875 95.289062 58.875 95.125 C 59.789062 94.945312 60.648438 94.789062 61.5 94.5625 C 62.96875 94.1875 64.40625 93.703125 65.8125 93.1875 C 65.898438 93.15625 65.976562 93.09375 66.0625 93.0625 C 83.53125 86.539062 96 69.726562 96 50 C 96 24.617188 75.382812 4 50 4 Z M 50 8 C 73.21875 8 92 26.78125 92 50 C 92 62.882812 86.242188 74.421875 77.125 82.125 C 76.476562 80.585938 75.382812 78.484375 73.625 76.375 C 68.023438 79.367188 60.257812 82 50 82 C 39.742188 82 31.976562 79.367188 26.375 76.375 C 24.617188 78.484375 23.523438 80.585938 22.875 82.125 C 13.757812 74.421875 8 62.882812 8 50 C 8 26.78125 26.78125 8 50 8 Z M 30.1875 21.375 L 28.8125 22.375 C 25.40625 24.945312 20.117188 32.234375 23.75 41.8125 C 22.21875 44.507812 18.078125 52.8125 18 63.875 L 18 64.5625 L 18.375 65.125 C 18.765625 65.648438 28.257812 78 50 78 C 71.742188 78 81.234375 65.648438 81.625 65.125 L 82 64.5625 L 82 63.875 C 81.921875 52.8125 77.789062 44.507812 76.25 41.8125 C 79.882812 32.234375 74.59375 24.945312 71.1875 22.375 L 69.8125 21.375 L 61.5 29.6875 C 59.554688 29.046875 55.546875 28 50 28 C 44.453125 28 40.445312 29.046875 38.5 29.6875 Z M 40 46 C 43.3125 46 46 48.6875 46 52 C 46 55.3125 43.3125 58 40 58 C 36.6875 58 34 55.3125 34 52 C 34 48.6875 36.6875 46 40 46 Z M 60 46 C 63.3125 46 66 48.6875 66 52 C 66 55.3125 63.3125 58 60 58 C 56.6875 58 54 55.3125 54 52 C 54 48.6875 56.6875 46 60 46 Z M 45 62 L 55 62 L 50 67 Z M 45 62 "/>
</g>
</svg>
