<svg fill="#000000" xmlns="http://www.w3.org/2000/svg"  viewBox="0 0 50 50" width="50px" height="50px"><path d="M 25 2 C 12.308594 2 2 12.308594 2 25 C 2 34.863281 8.234375 43.269531 16.96875 46.53125 C 17.011719 46.546875 17.050781 46.578125 17.09375 46.59375 C 17.796875 46.851563 18.515625 47.09375 19.25 47.28125 C 19.257813 47.285156 19.269531 47.277344 19.28125 47.28125 C 19.640625 47.371094 20.011719 47.457031 20.375 47.53125 C 20.4375 47.542969 20.496094 47.550781 20.5625 47.5625 C 20.976563 47.644531 21.390625 47.722656 21.8125 47.78125 C 22.027344 47.8125 22.25 47.820313 22.46875 47.84375 C 22.53125 47.851563 22.59375 47.867188 22.65625 47.875 C 22.917969 47.902344 23.167969 47.917969 23.4375 47.9375 C 23.953125 47.972656 24.476563 48 25 48 C 25.398438 48 25.796875 47.988281 26.1875 47.96875 C 26.648438 47.945313 27.09375 47.890625 27.53125 47.84375 C 27.75 47.820313 27.972656 47.8125 28.1875 47.78125 C 28.609375 47.722656 29.023438 47.644531 29.4375 47.5625 C 29.894531 47.472656 30.324219 47.394531 30.75 47.28125 C 31.484375 47.09375 32.203125 46.851563 32.90625 46.59375 C 32.949219 46.578125 32.988281 46.546875 33.03125 46.53125 C 41.765625 43.269531 48 34.863281 48 25 C 48 12.308594 37.691406 2 25 2 Z M 25 4 C 36.609375 4 46 13.390625 46 25 C 46 31.441406 43.121094 37.210938 38.5625 41.0625 C 38.238281 40.292969 37.691406 39.242188 36.8125 38.1875 C 34.011719 39.683594 30.128906 41 25 41 C 19.871094 41 15.988281 39.683594 13.1875 38.1875 C 12.308594 39.242188 11.761719 40.292969 11.4375 41.0625 C 6.878906 37.210938 4 31.441406 4 25 C 4 13.390625 13.390625 4 25 4 Z M 15.09375 10.6875 L 14.40625 11.1875 C 12.703125 12.472656 10.058594 16.117188 11.875 20.90625 C 11.109375 22.253906 9.039063 26.40625 9 31.9375 L 9 32.28125 L 9.1875 32.5625 C 9.382813 32.824219 14.128906 39 25 39 C 35.871094 39 40.617188 32.824219 40.8125 32.5625 L 41 32.28125 L 41 31.9375 C 40.960938 26.40625 38.894531 22.253906 38.125 20.90625 C 39.941406 16.117188 37.296875 12.472656 35.59375 11.1875 L 34.90625 10.6875 L 30.75 14.84375 C 29.777344 14.523438 27.773438 14 25 14 C 22.226563 14 20.222656 14.523438 19.25 14.84375 Z M 20 23 C 21.65625 23 23 24.34375 23 26 C 23 27.65625 21.65625 29 20 29 C 18.34375 29 17 27.65625 17 26 C 17 24.34375 18.34375 23 20 23 Z M 30 23 C 31.65625 23 33 24.34375 33 26 C 33 27.65625 31.65625 29 30 29 C 28.34375 29 27 27.65625 27 26 C 27 24.34375 28.34375 23 30 23 Z M 22.5 31 L 27.5 31 L 25 33.5 Z"/></svg>