<?xml version="1.0" encoding="UTF-8"?>
<svg xmlns="http://www.w3.org/2000/svg" xmlns:xlink="http://www.w3.org/1999/xlink" viewBox="0 0 50 50" width="50px" height="50px">
<g id="surface13697845">
<path style=" stroke:none;fill-rule:nonzero;fill:rgb(100%,100%,100%);fill-opacity:1;" d="M 5.75 2 C 4.71875 2 3.308594 2.296875 2.101562 3.335938 C 0.894531 4.375 0 6.15625 0 8.75 C 0 12.171875 2.023438 14.570312 4.207031 15.992188 C 5.703125 16.96875 7.230469 17.542969 8.484375 17.8125 C 7.007812 19.765625 6 22.675781 6 27 C 6 31.582031 2.253906 36.328125 2.21875 36.378906 C 1.976562 36.683594 1.929688 37.097656 2.105469 37.449219 L 5.105469 43.449219 C 5.273438 43.785156 5.621094 44 6 44 L 8.984375 44 C 9.546875 44 10 43.5625 10 43 C 10 41.5 9.613281 39.804688 8 39 L 7.480469 37.722656 L 10.5 35 C 10.5 35 15 35 18 31 C 18 31 20 33 32 33 C 32 33 36.75 38.875 38.722656 41.292969 C 39.546875 42.304688 40.761719 44 42.648438 44 L 44.914062 44 C 45.527344 44 46 43.5 46 42.875 C 46 41.375 44.878906 39.492188 43 39 L 39 32 C 39 32 40 30 40 26.5 C 40 23 43 21 43 21 L 44 21 C 49.03125 21 49.785156 17.976562 49.972656 17.242188 C 50.089844 16.769531 49.851562 16.28125 49.40625 16.085938 C 49.398438 16.082031 48.652344 15.71875 48.332031 14.839844 C 47.351562 11.558594 45.566406 9.738281 44 9.183594 L 44 7 C 44 6.460938 43.5625 6 43.023438 6 C 40.546875 6 39 10 39 10 C 35.179688 11.910156 35.902344 15.640625 28.996094 15.96875 C 28.679688 15.988281 28.351562 16 28 16 C 26.738281 16 25.183594 15.582031 23.535156 15.144531 C 21.539062 14.605469 19.273438 14 17 14 C 15.039062 14 12.445312 14.398438 10.269531 16.035156 C 10.269531 16.035156 10.269531 16.03125 10.269531 16.035156 C 10.179688 16.011719 10.089844 16 10 16 C 9.363281 16 7.113281 15.5 5.296875 14.316406 C 3.476562 13.132812 2 11.40625 2 8.75 C 2 6.59375 2.65625 5.5 3.40625 4.851562 C 4.15625 4.203125 5.121094 4 5.75 4 C 6.734375 4 7.253906 4.355469 7.605469 4.707031 C 7.957031 5.058594 8.066406 5.351562 8.066406 5.351562 C 8.179688 5.699219 8.476562 5.953125 8.835938 6.019531 C 9.199219 6.082031 9.566406 5.945312 9.792969 5.660156 C 10.023438 5.375 10.078125 4.984375 9.9375 4.648438 C 9.9375 4.648438 9.667969 3.941406 9.019531 3.292969 C 8.371094 2.644531 7.265625 2 5.75 2 Z M 44.617188 14.003906 C 44.925781 14.003906 45.308594 14.078125 45.617188 14.386719 C 46.230469 15 45.925781 15.925781 45.925781 15.925781 C 45.925781 15.925781 45 16.230469 44.386719 15.617188 C 43.769531 15 44.078125 14.078125 44.078125 14.078125 C 44.078125 14.078125 44.308594 14.003906 44.617188 14.003906 Z M 18.492188 33.480469 C 17.019531 34.960938 15.402344 35.804688 14 36.300781 L 14 37.210938 C 14 37.355469 14.03125 37.496094 14.089844 37.625 L 16.730469 43.414062 C 16.894531 43.769531 17.25 44 17.644531 44 L 20.984375 44 C 21.546875 44 22 43.535156 22 42.972656 C 22 41.625 21.609375 40.5 20 39.617188 L 19 37.429688 L 20.535156 34.0625 C 19.703125 33.878906 19.027344 33.679688 18.492188 33.480469 Z M 27.085938 34.871094 L 26.074219 39.945312 C 26.023438 40.1875 26 40.429688 26 40.664062 C 25.992188 42.457031 27.304688 44 29.003906 44 L 31.984375 44 C 32.546875 44 33 43.5625 33 43 C 33 41.625 32.613281 40.453125 31 39.558594 L 32.332031 36.59375 C 31.820312 35.960938 31.371094 35.40625 31.042969 34.996094 C 29.578125 34.984375 28.273438 34.9375 27.085938 34.871094 Z M 27.085938 34.871094 "/>
</g>
</svg>
