<?xml version="1.0" encoding="UTF-8"?>
<svg xmlns="http://www.w3.org/2000/svg" xmlns:xlink="http://www.w3.org/1999/xlink" viewBox="0 0 50 50" width="50px" height="50px">
<g id="surface13708890">
<path style=" stroke:none;fill-rule:nonzero;fill:rgb(100%,100%,100%);fill-opacity:1;" d="M 25 1 C 24.800781 1 24.605469 1.058594 24.433594 1.175781 L 1.433594 16.976562 C 1.164062 17.164062 1 17.472656 1 17.800781 L 1 21.300781 C 1 21.671875 1.207031 22.011719 1.535156 22.1875 C 1.863281 22.359375 2.265625 22.335938 2.570312 22.125 L 25 6.617188 L 47.433594 22.121094 C 47.601562 22.238281 47.800781 22.300781 48 22.300781 C 48.160156 22.300781 48.316406 22.261719 48.464844 22.1875 C 48.792969 22.011719 49 21.671875 49 21.300781 L 49 17.800781 C 49 17.472656 48.839844 17.164062 48.566406 16.976562 L 25.566406 1.175781 C 25.394531 1.058594 25.199219 1 25 1 Z M 25 9.050781 L 7 21.492188 L 5 22.871094 L 5 46 C 5 46.550781 5.449219 47 6 47 L 17 47 C 17.550781 47 18 46.550781 18 46 L 18 33 C 18 29.140625 21.140625 26 25 26 C 28.859375 26 32 29.140625 32 33 L 32 46 C 32 46.550781 32.449219 47 33 47 L 44 47 C 44.550781 47 45 46.550781 45 46 L 45 22.878906 L 43 21.5 Z M 25 9.050781 "/>
</g>
</svg>
