<svg fill="#000000" xmlns="http://www.w3.org/2000/svg"  viewBox="0 0 512 512" width="64px" height="64px"><path d="M 376.82227 84.537109 L 369.40234 112.73242 C 369.08634 113.93642 368.30066 114.96298 367.22266 115.58398 C 366.14466 116.20598 364.86016 116.36906 363.66016 116.03906 L 329.0332 106.52734 L 319.86133 140.49414 L 354.4707 149.62109 C 355.6657 149.93509 356.68755 150.7142 357.31055 151.7832 C 357.93155 152.8512 358.10311 154.12236 357.78711 155.31836 L 341.87305 215.5332 C 341.30505 217.6792 339.30889 219.13219 337.08789 218.99219 C 335.06489 218.86919 333.01037 218.80664 330.98438 218.80664 C 302.39038 218.80664 275.94134 230.88091 257.15234 250.75391 C 256.94634 250.97191 256.74206 251.19016 256.53906 251.41016 C 255.94606 252.04816 255.36706 252.70052 254.78906 253.35352 C 254.09306 254.14652 253.40638 254.94772 252.73438 255.76172 C 252.62238 255.89672 252.50944 256.03297 252.39844 256.16797 C 248.26244 261.23897 244.61447 266.72245 241.48047 272.56445 C 239.93747 275.53745 238.34614 278.81517 236.86914 282.32617 C 235.22614 286.31717 233.80409 290.44141 232.62109 294.69141 C 230.17309 304.00741 229.0568 313.47452 229.2168 322.85352 C 229.2228 323.14052 229.22833 323.42398 229.23633 323.70898 C 229.24833 324.17998 229.2652 324.64819 229.2832 325.11719 C 229.3082 325.72419 229.33409 326.33441 229.37109 326.94141 C 229.37209 326.96841 229.37495 326.99639 229.37695 327.02539 C 230.33095 342.71139 234.94136 358.11297 243.06836 372.16797 C 256.77936 395.88097 278.77867 412.77156 305.01367 419.72656 C 313.81667 422.10956 322.82259 423.31445 331.80859 423.31445 C 377.80659 423.31445 418.39091 392.06245 430.50391 347.31445 C 443.02191 300.87845 420.87661 251.40659 377.84961 229.68359 C 375.87061 228.68459 374.86912 226.43192 375.45312 224.29492 L 391.79883 164.50977 C 392.47483 162.04377 395.00742 160.57942 397.48242 161.23242 L 432.11133 170.36523 L 440.93945 136.75391 L 406.24219 127.22266 C 405.04919 126.89466 404.03483 126.1053 403.42383 125.0293 C 402.81483 123.9543 402.65538 122.68028 402.98438 121.48828 L 410.75586 93.359375 L 376.82227 84.537109 z M 71.0625 151.04492 L 71.0625 267.31445 L 106.47266 267.31445 L 106.47266 222.08203 C 106.47266 220.19703 107.60861 218.49934 109.34961 217.77734 C 109.92661 217.53934 110.53086 217.42383 111.13086 217.42383 C 112.34386 217.42383 113.53673 217.89611 114.42773 218.78711 L 159.15625 263.51953 C 160.71825 265.08053 160.96981 267.52409 159.75781 269.37109 C 133.35281 309.60809 139.06103 363.39567 173.33203 397.26367 C 192.57403 416.75367 218.15806 427.46484 245.41406 427.46484 C 257.74406 427.46484 270.06092 425.17788 281.54492 420.79688 C 281.50792 420.77688 281.4745 420.75628 281.4375 420.73828 C 272.4515 416.24928 264.15633 410.56612 256.73633 403.82812 C 256.42333 403.54512 256.11173 403.26061 255.80273 402.97461 C 255.24773 402.45861 254.7012 401.93616 254.1582 401.41016 C 250.2312 397.62716 246.57852 393.55675 243.22852 389.21875 C 226.79852 388.28875 211.62055 381.63227 200.31055 370.32227 C 188.19755 358.20927 181.52539 342.14675 181.52539 325.09375 C 181.52539 308.05475 188.18439 292.00448 200.27539 279.89648 C 210.01739 269.74648 222.6873 263.44908 237.0293 261.58008 C 238.9763 258.48908 241.06897 255.50762 243.29297 252.64062 C 243.40097 252.49963 243.50723 252.35875 243.61523 252.21875 C 243.99023 251.73975 244.37091 251.26302 244.75391 250.79102 C 245.49591 249.87102 246.24953 248.9595 247.01953 248.0625 C 247.06453 248.0095 247.11025 247.9573 247.15625 247.9043 C 254.39625 239.5153 262.88217 232.22605 272.45117 226.24805 C 263.71917 223.90805 254.73681 222.72656 245.63281 222.72656 C 225.63781 222.72656 206.33836 228.46155 189.81836 239.31055 C 187.97836 240.51755 185.54447 240.27456 183.98047 238.72656 L 138.82031 193.99414 C 137.47831 192.66514 137.07006 190.65811 137.78906 188.91211 C 138.50806 187.16611 140.20961 186.02539 142.09961 186.02539 L 187.76172 186.02539 L 187.76172 151.04492 L 71.0625 151.04492 z M 331.42773 257.06445 C 337.03173 257.06445 342.62459 257.82059 348.05859 259.30859 C 364.53859 263.53959 378.40058 274.02173 387.01758 288.80273 C 395.68858 303.67673 397.98247 321.04303 393.48047 337.70703 C 385.85747 365.52703 360.51175 384.94727 331.84375 384.94727 L 331.83984 384.94727 C 326.21284 384.94727 320.57017 384.19298 315.07617 382.70898 C 298.51217 378.23198 284.69964 367.6482 276.18164 352.9082 C 267.68964 338.2152 265.36195 320.97228 269.62695 304.36328 C 277.26595 276.48528 302.66973 257.06445 331.42773 257.06445 z"/></svg>