<?xml version="1.0" encoding="UTF-8" standalone="no"?>
<!-- Generator: Adobe Illustrator 22.1.0, SVG Export Plug-In . SVG Version: 6.00 Build 0)  -->

<svg
   version="1.1"
   id="Layer_1"
   x="0px"
   y="0px"
   viewBox="0 0 32 31.999998"
   xml:space="preserve"
   sodipodi:docname="logofacebooksmall.svg"
   inkscape:version="1.1.1 (eb90963e84, 2021-10-02)"
   width="32"
   height="31.999998"
   xmlns:inkscape="http://www.inkscape.org/namespaces/inkscape"
   xmlns:sodipodi="http://sodipodi.sourceforge.net/DTD/sodipodi-0.dtd"
   xmlns="http://www.w3.org/2000/svg"
   xmlns:svg="http://www.w3.org/2000/svg"><defs
   id="defs13" /><sodipodi:namedview
   id="namedview11"
   pagecolor="#ffffff"
   bordercolor="#666666"
   borderopacity="1.0"
   inkscape:pageshadow="2"
   inkscape:pageopacity="0.0"
   inkscape:pagecheckerboard="0"
   showgrid="false"
   inkscape:zoom="1.1757812"
   inkscape:cx="44.651165"
   inkscape:cy="222.40533"
   inkscape:window-width="1528"
   inkscape:window-height="836"
   inkscape:window-x="0"
   inkscape:window-y="0"
   inkscape:window-maximized="1"
   inkscape:current-layer="g8" />
<g
   id="g8"
   style="fill:#ffffff"
   transform="translate(-31,-33.100001)">
	<title
   id="title2">facebook</title>
	<g
   id="g6"
   style="fill:#ffffff;image-rendering:auto"
   transform="matrix(0.07111111,0,0,0.07154035,28.795556,30.732015)">
		<path
   d="m 481,258.1 c 0,-124.3 -100.8,-225 -225,-225 -124.3,0 -225,100.7 -225,225 0,112.3 82.3,205.4 189.8,222.2 V 323.1 h -57.1 v -65 h 57.1 v -49.6 c 0,-56.4 33.5,-87.5 85,-87.5 24.6,0 50.4,4.4 50.4,4.4 v 55.4 h -28.4 c -27.9,0 -36.6,17.4 -36.6,35.2 v 42.2 h 62.4 l -10,65 H 291.2 V 480.4 C 398.7,463.4 481,370.3 481,258.1 Z"
   id="path4"
   style="fill:#ffffff" />
	</g>
</g>
</svg>
