<?xml version="1.0" encoding="UTF-8" standalone="no"?>
<!-- Generator: Adobe Illustrator 22.1.0, SVG Export Plug-In . SVG Version: 6.00 Build 0)  -->

<svg
   version="1.1"
   id="Layer_1"
   x="0px"
   y="0px"
   viewBox="0 0 512 512"
   style="enable-background:new 0 0 512 512;"
   xml:space="preserve"
   sodipodi:docname="logofacebook.svg"
   inkscape:version="1.1.1 (eb90963e84, 2021-10-02)"
   xmlns:inkscape="http://www.inkscape.org/namespaces/inkscape"
   xmlns:sodipodi="http://sodipodi.sourceforge.net/DTD/sodipodi-0.dtd"
   xmlns="http://www.w3.org/2000/svg"
   xmlns:svg="http://www.w3.org/2000/svg"><defs
   id="defs13" /><sodipodi:namedview
   id="namedview11"
   pagecolor="#ffffff"
   bordercolor="#666666"
   borderopacity="1.0"
   inkscape:pageshadow="2"
   inkscape:pageopacity="0.0"
   inkscape:pagecheckerboard="0"
   showgrid="false"
   inkscape:zoom="1.1757812"
   inkscape:cx="255.57475"
   inkscape:cy="255.57475"
   inkscape:window-width="1528"
   inkscape:window-height="836"
   inkscape:window-x="0"
   inkscape:window-y="0"
   inkscape:window-maximized="1"
   inkscape:current-layer="Layer_1" />
<g
   id="g8"
   style="fill:#ffffff">
	<title
   id="title2">facebook</title>
	<g
   id="g6"
   style="fill:#ffffff">
		<path
   d="M481,258.1c0-124.3-100.8-225-225-225c-124.3,0-225,100.7-225,225c0,112.3,82.3,205.4,189.8,222.2V323.1h-57.1v-65h57.1    v-49.6c0-56.4,33.5-87.5,85-87.5c24.6,0,50.4,4.4,50.4,4.4v55.4h-28.4c-27.9,0-36.6,17.4-36.6,35.2v42.2h62.4l-10,65h-52.4v157.2    C398.7,463.4,481,370.3,481,258.1L481,258.1z"
   id="path4"
   style="fill:#ffffff" />
	</g>
</g>
</svg>
