<?xml version="1.0" encoding="UTF-8"?>
<svg xmlns="http://www.w3.org/2000/svg" xmlns:xlink="http://www.w3.org/1999/xlink" viewBox="0 0 128 128" width="128px" height="128px">
<g id="surface36998728">
<path style=" stroke:none;fill-rule:nonzero;fill:rgb(98.039216%,98.039216%,98.039216%);fill-opacity:1;" d="M 13.75 1 C 12.644531 1 11.75 1.894531 11.75 3 L 11.75 125.25 C 11.75 126.355469 12.644531 127.25 13.75 127.25 L 114.25 127.25 C 115.355469 127.25 116.25 126.355469 116.25 125.25 L 116.25 3 C 116.25 1.894531 115.355469 1 114.25 1 Z M 15.75 5 L 112.25 5 L 112.25 123 L 15.75 123 Z M 98.164062 16.722656 C 94.664062 16.722656 90.929688 18.292969 90.929688 22.703125 C 90.929688 26.644531 93.886719 27.957031 96.496094 29.117188 C 98.546875 30.03125 100.320312 30.816406 100.320312 32.679688 C 100.320312 34.464844 98.691406 35.101562 97.167969 35.101562 C 95.386719 35.101562 94.417969 34.285156 93.636719 33.628906 C 93.136719 33.210938 92.707031 32.847656 92.195312 32.847656 C 91.203125 32.847656 90.402344 34.160156 90.402344 35.019531 C 90.402344 36.792969 93.34375 38.773438 97.285156 38.773438 C 101.660156 38.773438 104.375 36.292969 104.375 32.296875 C 104.375 27.738281 101.023438 26.316406 98.335938 25.171875 C 96.535156 24.410156 94.980469 23.75 94.980469 22.351562 C 94.980469 21 96.140625 20.222656 98.164062 20.222656 C 99.195312 20.199219 100.210938 20.457031 101.109375 20.964844 C 101.4375 21.171875 101.8125 21.300781 102.203125 21.335938 C 103.351562 21.335938 103.847656 19.914062 103.847656 19.191406 C 103.847656 17.242188 100.273438 16.722656 98.164062 16.722656 Z M 46.046875 16.75 C 45.183594 16.75 44.25 17.285156 44.25 18.195312 L 44.25 37.1875 C 44.25 38.097656 45.183594 38.5 46.046875 38.5 L 56.464844 38.5 C 57.375 38.5 57.789062 37.628906 57.789062 36.78125 C 57.789062 35.707031 57.246094 35 56.464844 35 L 48.25 35 L 48.25 29.25 L 52.632812 29.25 C 53.5 29.25 53.957031 28.441406 53.957031 27.65625 C 53.957031 26.835938 53.5 26 52.632812 26 L 48.25 26 L 48.25 20.5 L 56.464844 20.5 C 57.246094 20.5 57.789062 19.667969 57.789062 18.597656 C 57.789062 17.746094 57.375 16.75 56.464844 16.75 Z M 63.75 16.871094 C 62.570312 16.871094 61.199219 17.589844 61.199219 18.515625 C 61.199219 18.648438 61.222656 18.78125 61.261719 18.90625 L 67.054688 37.308594 C 67.359375 38.324219 68.648438 38.6875 69.664062 38.6875 C 70.769531 38.6875 71.988281 38.257812 72.210938 37.304688 L 73.992188 29.910156 L 75.742188 37.300781 C 75.964844 38.257812 77.183594 38.6875 78.292969 38.6875 C 79.332031 38.6875 80.5625 38.328125 80.898438 37.3125 L 86.691406 18.910156 C 86.734375 18.78125 86.753906 18.652344 86.757812 18.519531 C 86.757812 17.589844 85.386719 16.871094 84.203125 16.871094 C 83.460938 16.871094 82.96875 17.175781 82.828125 17.722656 L 78.332031 33.132812 L 75.957031 23.402344 C 75.753906 22.554688 74.773438 22.253906 73.992188 22.253906 C 73.164062 22.253906 72.203125 22.554688 72 23.402344 L 69.621094 33.132812 L 65.128906 17.726562 C 64.984375 17.175781 64.496094 16.871094 63.75 16.871094 Z M 25.585938 16.871094 C 24.578125 16.871094 23.5 17.28125 23.5 18.195312 L 23.5 37.1875 C 23.5 38.097656 24.648438 38.511719 25.625 38.511719 C 26.632812 38.511719 27.75 38.054688 27.75 37.1875 L 27.75 25.921875 L 33.769531 37.246094 L 33.753906 37.246094 C 34.21875 38.09375 34.929688 38.511719 36.015625 38.511719 C 37.023438 38.511719 38 38.054688 38 37.183594 L 38 18.167969 C 38 17.273438 37.007812 16.871094 36 16.871094 C 35.066406 16.871094 34 17.210938 34 18.167969 L 34 29.417969 L 28.59375 18.957031 C 27.65625 17.171875 26.976562 16.871094 25.585938 16.871094 Z M 21.265625 47.5 C 20.160156 47.5 19.265625 48.394531 19.265625 49.5 C 19.265625 50.605469 20.160156 51.5 21.265625 51.5 L 104.234375 51.5 C 105.339844 51.5 106.234375 50.605469 106.234375 49.5 C 106.234375 48.394531 105.339844 47.5 104.234375 47.5 Z M 21.265625 56.75 C 20.160156 56.75 19.265625 57.644531 19.265625 58.75 C 19.265625 59.855469 20.160156 60.75 21.265625 60.75 L 104.234375 60.75 C 105.339844 60.75 106.234375 59.855469 106.234375 58.75 C 106.234375 57.644531 105.339844 56.75 104.234375 56.75 Z M 21.265625 66 C 20.160156 66 19.265625 66.894531 19.265625 68 C 19.265625 69.105469 20.160156 70 21.265625 70 L 104.234375 70 C 105.339844 70 106.234375 69.105469 106.234375 68 C 106.234375 66.894531 105.339844 66 104.234375 66 Z M 73.5 73.75 C 72.394531 73.75 71.5 74.644531 71.5 75.75 L 71.5 116.25 C 71.5 117.355469 72.394531 118.25 73.5 118.25 L 103.75 118.25 C 104.855469 118.25 105.75 117.355469 105.75 116.25 L 105.75 75.75 C 105.75 74.644531 104.855469 73.75 103.75 73.75 Z M 21.265625 75.25 C 20.160156 75.25 19.265625 76.144531 19.265625 77.25 C 19.265625 78.355469 20.160156 79.25 21.265625 79.25 L 64.234375 79.25 C 65.339844 79.25 66.234375 78.355469 66.234375 77.25 C 66.234375 76.144531 65.339844 75.25 64.234375 75.25 Z M 75.5 77.75 L 101.75 77.75 L 101.75 114.25 L 75.5 114.25 Z M 21.265625 84.5 C 20.160156 84.5 19.265625 85.394531 19.265625 86.5 C 19.265625 87.605469 20.160156 88.5 21.265625 88.5 L 64.234375 88.5 C 65.339844 88.5 66.234375 87.605469 66.234375 86.5 C 66.234375 85.394531 65.339844 84.5 64.234375 84.5 Z M 21.265625 94 C 20.160156 94 19.265625 94.894531 19.265625 96 C 19.265625 97.105469 20.160156 98 21.265625 98 L 64.234375 98 C 65.339844 98 66.234375 97.105469 66.234375 96 C 66.234375 94.894531 65.339844 94 64.234375 94 Z M 21.265625 103.25 C 20.160156 103.25 19.265625 104.144531 19.265625 105.25 C 19.265625 106.355469 20.160156 107.25 21.265625 107.25 L 64.234375 107.25 C 65.339844 107.25 66.234375 106.355469 66.234375 105.25 C 66.234375 104.144531 65.339844 103.25 64.234375 103.25 Z M 21.265625 112.5 C 20.160156 112.5 19.265625 113.394531 19.265625 114.5 C 19.265625 115.605469 20.160156 116.5 21.265625 116.5 L 64.234375 116.5 C 65.339844 116.5 66.234375 115.605469 66.234375 114.5 C 66.234375 113.394531 65.339844 112.5 64.234375 112.5 Z M 21.265625 112.5 "/>
</g>
</svg>
