<?xml version="1.0" encoding="UTF-8" standalone="no"?>
<svg
   xmlns:dc="http://purl.org/dc/elements/1.1/"
   xmlns:cc="http://creativecommons.org/ns#"
   xmlns:rdf="http://www.w3.org/1999/02/22-rdf-syntax-ns#"
   xmlns:svg="http://www.w3.org/2000/svg"
   xmlns="http://www.w3.org/2000/svg"
   xmlns:sodipodi="http://sodipodi.sourceforge.net/DTD/sodipodi-0.dtd"
   xmlns:inkscape="http://www.inkscape.org/namespaces/inkscape"
   width="4.5cm"
   height="5.5cm"
   viewBox="0 0 45 54.999998"
   version="1.1"
   id="svg8"
   inkscape:version="1.0 (4035a4fb49, 2020-05-01)"
   sodipodi:docname="dessin.svg">
  <defs
     id="defs2" />
  <sodipodi:namedview
     inkscape:guide-bbox="true"
     showguides="true"
     id="base"
     pagecolor="#ffffff"
     bordercolor="#666666"
     borderopacity="1.0"
     inkscape:pageopacity="0.0"
     inkscape:pageshadow="2"
     inkscape:zoom="1.979899"
     inkscape:cx="110.66968"
     inkscape:cy="134.56055"
     inkscape:document-units="mm"
     inkscape:current-layer="layer2"
     inkscape:document-rotation="0"
     showgrid="false"
     units="cm"
     inkscape:window-width="1452"
     inkscape:window-height="1040"
     inkscape:window-x="156"
     inkscape:window-y="0"
     inkscape:window-maximized="0">
    <sodipodi:guide
       id="guide839"
       orientation="1,0"
       position="22.450641,61.41447" />
    <sodipodi:guide
       id="guide841"
       orientation="0,-1"
       position="9.1039127,27.110352" />
  </sodipodi:namedview>
  <metadata
     id="metadata5">
    <rdf:RDF>
      <cc:Work
         rdf:about="">
        <dc:format>image/svg+xml</dc:format>
        <dc:type
           rdf:resource="http://purl.org/dc/dcmitype/StillImage" />
        <dc:title></dc:title>
      </cc:Work>
    </rdf:RDF>
  </metadata>
  <g
     inkscape:groupmode="layer"
     id="layer2"
     inkscape:label="Calque 2">
    <path
       style="fill:#fafafa;fill-opacity:1;fill-rule:nonzero;stroke:none;stroke-width:0.264583"
       d="m 9.2876146,11.28732 c -0.29249,0 -0.52917,0.236678 -0.52917,0.529167 v 32.345306 c 0,0.29249 0.23668,0.52917 0.52917,0.52917 H 35.878246 c 0.29249,0 0.52916,-0.23668 0.52916,-0.52917 V 11.816487 c 0,-0.292489 -0.23667,-0.529167 -0.52916,-0.529167 z m 0.52917,1.058334 H 35.349076 V 43.566483 H 9.8167846 Z m 21.8053914,3.101622 c -0.92605,0 -1.9141,0.41548 -1.9141,1.582327 0,1.04283 0.78238,1.3901 1.47278,1.69705 0.5426,0.24185 1.01182,0.44959 1.01182,0.94258 0,0.47232 -0.43098,0.64079 -0.83405,0.64079 -0.47129,0 -0.72761,-0.21601 -0.93431,-0.38964 -0.1323,-0.11059 -0.24598,-0.20671 -0.38138,-0.20671 -0.26251,0 -0.47439,0.34727 -0.47439,0.57465 0,0.46922 0.77825,0.99322 1.82108,0.99322 1.15755,0 1.87586,-0.65629 1.87586,-1.71359 0,-1.20613 -0.88677,-1.58234 -1.59784,-1.88516 -0.47646,-0.20154 -0.8878,-0.3762 -0.8878,-0.74621 0,-0.357597 0.30696,-0.563267 0.84233,-0.563267 0.27285,-0.006 0.54157,0.062 0.77928,0.19637 0.0868,0.0548 0.18603,0.0889 0.28939,0.0982 0.30385,0 0.43511,-0.3762 0.43511,-0.5674 0,-0.51573 -0.94568,-0.65319 -1.50378,-0.65319 z m -13.78934,0.007 c -0.22841,0 -0.47543,0.14159 -0.47543,0.3824 v 5.025017 c 0,0.24081 0.24702,0.34726 0.47543,0.34726 h 2.75642 c 0.24081,0 0.35036,-0.23047 0.35036,-0.45475 0,-0.28422 -0.14366,-0.47129 -0.35036,-0.47129 h -2.17351 v -1.52135 h 1.15962 c 0.22944,0 0.35036,-0.21394 0.35036,-0.42168 0,-0.21704 -0.12092,-0.43821 -0.35036,-0.43821 h -1.15962 v -1.455207 h 2.17351 c 0.2067,0 0.35036,-0.22014 0.35036,-0.50333 0,-0.22531 -0.10955,-0.48886 -0.35036,-0.48886 z m 4.68395,0.032 c -0.31213,0 -0.6749,0.19017 -0.6749,0.43511 0,0.0351 0.006,0.0703 0.0165,0.10335 l 1.53273,4.868957 c 0.0806,0.26872 0.42168,0.36483 0.69039,0.36483 0.29249,0 0.61495,-0.11369 0.67386,-0.36587 l 0.47129,-1.95646 0.46302,1.95544 c 0.0589,0.25321 0.38137,0.3669 0.6749,0.3669 0.27491,0 0.60048,-0.0951 0.68936,-0.3638 l 1.53272,-4.868957 c 0.0114,-0.0341 0.0165,-0.0682 0.0176,-0.10335 0,-0.24598 -0.36277,-0.43615 -0.67593,-0.43615 -0.19637,0 -0.32659,0.0806 -0.3638,0.22531 l -1.18959,4.077267 -0.62838,-2.57452 c -0.0537,-0.22427 -0.31316,-0.30386 -0.51987,-0.30386 -0.21911,0 -0.47335,0.0796 -0.5271,0.30386 l -0.62942,2.57452 -1.18856,-4.076237 c -0.0382,-0.14572 -0.16743,-0.22634 -0.36483,-0.22634 z m -10.097581,0 c -0.266649,0 -0.5519,0.10852 -0.5519,0.35036 v 5.025017 c 0,0.24081 0.303861,0.35036 0.56224,0.35036 0.266651,0 0.562241,-0.12092 0.562241,-0.35036 v -2.98069 l 1.59267,2.9962 h -0.004 c 0.12299,0.22427 0.31109,0.33486 0.59841,0.33486 0.26665,0 0.52503,-0.12092 0.52503,-0.3514 v -5.031217 c 0,-0.23668 -0.26251,-0.34313 -0.52916,-0.34313 -0.24702,0 -0.52917,0.0899 -0.52917,0.34313 v 2.976567 l -1.4304,-2.767787 c -0.24805,-0.47233 -0.42788,-0.55191 -0.795821,-0.55191 z m -1.14308,8.103897 c -0.29249,0 -0.52917,0.23668 -0.52917,0.52917 0,0.29248 0.23668,0.52916 0.52917,0.52916 h 21.952151 c 0.29249,0 0.52917,-0.23668 0.52917,-0.52916 0,-0.29249 -0.23668,-0.52917 -0.52917,-0.52917 z m 0,2.44739 c -0.29249,0 -0.52917,0.23668 -0.52917,0.52917 0,0.29249 0.23668,0.52917 0.52917,0.52917 h 21.952151 c 0.29249,0 0.52917,-0.23668 0.52917,-0.52917 0,-0.29249 -0.23668,-0.52917 -0.52917,-0.52917 z m 0,2.4474 c -0.29249,0 -0.52917,0.23668 -0.52917,0.52917 0,0.29249 0.23668,0.52916 0.52917,0.52916 h 21.952151 c 0.29249,0 0.52917,-0.23667 0.52917,-0.52916 0,-0.29249 -0.23668,-0.52917 -0.52917,-0.52917 z m 13.820351,2.05052 c -0.29249,0 -0.52917,0.23668 -0.52917,0.52917 v 10.71562 c 0,0.29249 0.23668,0.52917 0.52917,0.52917 h 8.00364 c 0.29249,0 0.52917,-0.23668 0.52917,-0.52917 v -10.71562 c 0,-0.29249 -0.23668,-0.52917 -0.52917,-0.52917 z m -13.820351,0.39688 c -0.29249,0 -0.52917,0.23667 -0.52917,0.52916 0,0.29249 0.23668,0.52917 0.52917,0.52917 h 11.368821 c 0.29248,0 0.52916,-0.23668 0.52916,-0.52917 0,-0.29249 -0.23668,-0.52916 -0.52916,-0.52916 z m 14.349511,0.66145 h 6.94531 v 9.6573 h -6.94531 z m -14.349511,1.78594 c -0.29249,0 -0.52917,0.23668 -0.52917,0.52917 0,0.29249 0.23668,0.52917 0.52917,0.52917 h 11.368821 c 0.29248,0 0.52916,-0.23668 0.52916,-0.52917 0,-0.29249 -0.23668,-0.52917 -0.52916,-0.52917 z m 0,2.51354 c -0.29249,0 -0.52917,0.23668 -0.52917,0.52917 0,0.29249 0.23668,0.52917 0.52917,0.52917 h 11.368821 c 0.29248,0 0.52916,-0.23668 0.52916,-0.52917 0,-0.29249 -0.23668,-0.52917 -0.52916,-0.52917 z m 0,2.4474 c -0.29249,0 -0.52917,0.23668 -0.52917,0.52917 0,0.29249 0.23668,0.52916 0.52917,0.52916 h 11.368821 c 0.29248,0 0.52916,-0.23667 0.52916,-0.52916 0,-0.29249 -0.23668,-0.52917 -0.52916,-0.52917 z m 0,2.4474 c -0.29249,0 -0.52917,0.23667 -0.52917,0.52916 0,0.29249 0.23668,0.52917 0.52917,0.52917 h 11.368821 c 0.29248,0 0.52916,-0.23668 0.52916,-0.52917 0,-0.29249 -0.23668,-0.52916 -0.52916,-0.52916 z m 0,0"
       id="path833" />
  </g>
</svg>
