<?xml version="1.0"?><svg fill="#000000" xmlns="http://www.w3.org/2000/svg"  viewBox="0 0 30 30" width="30px" height="30px">    <path d="M 9.5449219 4 C 5.9299219 4 3 6.9299219 3 10.544922 C 3 16.837321 10.298975 22.849799 13.708984 25.527344 A 2 2 0 0 0 13.71875 25.535156 C 13.742115 25.5535 13.773881 25.579629 13.796875 25.597656 L 13.800781 25.597656 A 2 2 0 0 0 15 26 A 2 2 0 0 0 16.201172 25.597656 L 16.203125 25.597656 C 16.209855 25.59238 16.219801 25.585381 16.226562 25.580078 C 16.231704 25.576045 16.23898 25.570455 16.244141 25.566406 A 2 2 0 0 0 16.263672 25.548828 C 19.663109 22.880904 27 16.852336 27 10.544922 C 27 6.9299219 24.070078 4 20.455078 4 C 17.000078 4 15 7 15 7 C 15 7 12.999922 4 9.5449219 4 z M 13.080078 9 C 13.595078 9 14 9.7129062 14 11.003906 C 14 12.430906 13.230516 13 12.478516 13 C 11.800516 13 11 12.659 11 11.5 C 11 10.117 11.936078 9 13.080078 9 z M 16.919922 9 C 18.063922 9 19 10.117 19 11.5 C 19 12.659 18.199484 13 17.521484 13 C 16.769484 13 16 12.430906 16 11.003906 C 16 9.7129062 16.404922 9 16.919922 9 z M 9.3203125 13 C 9.6543125 13 10.006797 13.348453 10.341797 13.814453 C 10.585797 14.153453 11 14.678156 11 15.285156 C 11 15.709156 10.532 17 9.5 17 C 8.828 17 8.0659531 16.499203 8.0019531 15.158203 C 7.9569531 14.233203 8.7113125 13 9.3203125 13 z M 20.679688 13 C 21.288687 13 22.043047 14.233203 21.998047 15.158203 C 21.934047 16.499203 21.171 17 20.5 17 C 19.468 17 19 15.709156 19 15.285156 C 19 14.678156 19.414203 14.153453 19.658203 13.814453 C 19.993203 13.348453 20.345687 13 20.679688 13 z M 14.998047 15 C 15.943047 15 16.311953 15.643 16.501953 16.5 C 16.872953 18.188 19 18.198641 19 19.806641 C 19 20.227641 18.646703 21 17.595703 21 C 16.736703 21 16.313 20.5 15 20.5 C 13.687 20.5 13.263297 21 12.404297 21 C 11.353297 21 11 20.227641 11 19.806641 C 11 18.198641 13.127047 18.189 13.498047 16.5 C 13.687047 15.643 14.054047 15 14.998047 15 z"/></svg>