<?xml version="1.0" encoding="UTF-8"?>
<svg xmlns="http://www.w3.org/2000/svg" xmlns:xlink="http://www.w3.org/1999/xlink" viewBox="0 0 50 50" width="50px" height="50px">
<g id="surface20019336">
<path style=" stroke:none;fill-rule:nonzero;fill:rgb(100%,100%,100%);fill-opacity:1;" d="M 18.15625 2 C 13.503906 2 11 6.621094 11 10.96875 C 11 14.414062 13.714844 21 17.96875 21 C 20.722656 21 24 19.050781 24 9.78125 C 24 5.707031 21.210938 2 18.15625 2 Z M 33.75 2 C 28.6875 2 26 7.078125 26 10.75 C 26 13.667969 27.148438 22 32.25 22 C 37.28125 22 40 16.101562 40 10.5625 C 40 4.96875 36.367188 2 33.75 2 Z M 6.71875 18 C 3.382812 18 0 22.878906 0 27.65625 C 0 31.0625 2.5625 36 6.5625 36 C 10.597656 36 13 30.75 13 25.6875 C 13 21.800781 9.882812 18 6.71875 18 Z M 45.09375 18 C 42.488281 18.054688 39.820312 20.375 37.5 24.71875 C 35.882812 27.742188 35.558594 30.628906 36.5625 32.84375 C 37.265625 34.394531 38.574219 35.484375 40.25 35.875 C 40.628906 35.964844 41.019531 36 41.40625 36 C 44.535156 36 47.609375 33.046875 49.40625 28.28125 C 50.332031 25.8125 50.160156 22.679688 49 20.5 C 48.3125 19.207031 47.355469 18.394531 46.21875 18.125 C 45.851562 18.039062 45.464844 17.992188 45.09375 18 Z M 24.21875 27 C 21.019531 27 19 29.378906 16.875 31.90625 C 16.175781 32.742188 15.464844 33.601562 14.65625 34.4375 C 13.683594 35.449219 12.675781 36.222656 11.8125 36.90625 C 9.761719 38.527344 8 39.941406 8 43.15625 C 8 46.0625 10.203125 49 14.40625 49 C 16.726562 49 18.40625 48.492188 20.03125 48 C 21.472656 47.5625 22.832031 47.15625 24.5625 47.15625 C 26.449219 47.15625 28.152344 47.464844 29.8125 47.78125 C 31.433594 48.089844 33.121094 48.4375 34.90625 48.4375 C 39.613281 48.4375 42 46.484375 42 42.6875 C 42 39.785156 39.511719 38.691406 37.3125 37.71875 C 35.859375 37.074219 34.363281 36.40625 33.4375 35.28125 C 32.671875 34.347656 31.984375 33.371094 31.34375 32.40625 C 29.496094 29.628906 27.777344 27 24.21875 27 Z M 24.21875 27 "/>
</g>
</svg>
